<svg width="24" height="26" viewBox="0 0 24 26" fill="none" xmlns="http://www.w3.org/2000/svg">
<g clip-path="url(#clip0_1_13)">
<path d="M22.3163 21.0028C22.1355 22.3479 21.2303 23.511 19.9636 24.028C19.3429 24.2859 18.6704 24.3643 17.9979 24.2859C17.3519 24.2088 16.7046 24.0015 16.0333 23.6146C15.1029 23.0964 14.1712 22.2961 13.0853 21.1065C14.7919 19.0118 15.826 17.0991 16.2141 15.3924C16.3949 14.591 16.4214 13.8666 16.3431 13.1941C16.2394 12.5481 16.0068 11.9527 15.6452 11.4356C14.8438 10.2726 13.4987 9.60005 11.9994 9.60005C10.5001 9.60005 9.15501 10.2979 8.35352 11.4356C7.99195 11.9527 7.75933 12.5481 7.65568 13.1941C7.55203 13.8666 7.57855 14.6163 7.78464 15.3924C8.17273 17.0991 9.23214 19.0383 10.9135 21.1318C9.85284 22.3214 8.89708 23.1229 7.96543 23.6399C7.29291 24.028 6.6469 24.2353 6.00089 24.3124C5.33439 24.3872 4.66066 24.298 4.03634 24.0545C2.76963 23.5375 1.86449 22.3732 1.68371 21.0294C1.60657 20.3834 1.6584 19.7373 1.91632 19.013C1.99345 18.7539 2.12362 18.4959 2.25258 18.1862C2.43337 17.7728 2.64067 17.3329 2.84676 16.893L2.87328 16.8411C4.65704 12.988 6.57097 9.05769 8.56203 5.23104L8.63916 5.07557C8.84646 4.68868 9.05256 4.27408 9.25986 3.88599C9.46716 3.47259 9.69978 3.0845 9.98421 2.74824C10.5278 2.12754 11.2509 1.79128 12.0524 1.79128C12.8539 1.79128 13.5782 2.12754 14.1206 2.74824C14.405 3.0845 14.6377 3.47259 14.845 3.88599C15.0523 4.27408 15.2584 4.68748 15.4657 5.07436L15.544 5.22984C17.5085 9.08179 19.4225 13.0121 21.2062 16.8652V16.8906C21.4135 17.304 21.5943 17.7704 21.8004 18.1838C21.9294 18.4947 22.0595 18.7527 22.1367 19.0106C22.3428 19.6843 22.4199 20.3303 22.3163 21.0028ZM11.9994 19.7868C10.6037 18.0283 9.69857 16.3735 9.38762 14.9778C9.25866 14.3824 9.23214 13.8654 9.31048 13.4002C9.36231 12.9868 9.51778 12.624 9.72388 12.3143C10.2156 11.6164 11.0424 11.1765 11.9994 11.1765C12.9563 11.1765 13.8097 11.5911 14.2749 12.3143C14.4822 12.6252 14.6364 12.9868 14.6883 13.4002C14.7654 13.8654 14.7401 14.409 14.6111 14.9778C14.3014 16.3482 13.3963 18.003 11.9994 19.7868ZM23.6613 18.4429C23.5323 18.1332 23.4022 17.7969 23.2732 17.5125C23.0659 17.0472 22.8598 16.6073 22.6778 16.1939L22.6525 16.1686C20.8688 12.2901 18.9548 8.35985 16.9385 4.48138L16.8613 4.3259C16.654 3.93782 16.4479 3.52442 16.2406 3.11102C15.9815 2.6458 15.7236 2.15406 15.3102 1.68883C14.4822 0.65353 13.2926 0.0846558 12.0259 0.0846558C10.7327 0.0846558 9.56961 0.65353 8.71509 1.6358C8.327 2.10103 8.04257 2.59277 7.78464 3.05799C7.57734 3.47139 7.37125 3.88479 7.16394 4.27287L7.08681 4.42715C5.09575 8.30562 3.15651 12.2359 1.37275 16.1144L1.34744 16.1662C1.16666 16.5796 0.959355 17.0195 0.752053 17.4847C0.61345 17.7909 0.484489 18.1018 0.363965 18.4152C0.0277019 19.3722 -0.075949 20.2773 0.053012 21.2077C0.337449 23.147 1.63067 24.7765 3.41443 25.4996C4.08696 25.784 4.7848 25.913 5.50915 25.913C5.71645 25.913 5.97437 25.8877 6.18167 25.8612C7.03498 25.7575 7.91361 25.4743 8.76692 24.9826C9.82753 24.3884 10.8351 23.5351 11.9729 22.2937C13.1106 23.5351 14.1447 24.3884 15.1788 24.9826C16.0321 25.4743 16.9107 25.7575 17.7641 25.8612C17.9714 25.8877 18.2293 25.913 18.4366 25.913C19.1609 25.913 19.8841 25.784 20.5313 25.4996C22.3416 24.7753 23.6083 23.1205 23.8927 21.2077C24.1 20.3038 23.9964 19.3999 23.6613 18.4429Z" fill="#FF385C"/>
</g>
<defs>
<clipPath id="clip0_1_13">
<rect width="24" height="25.8308" fill="white" transform="translate(0 0.0846252)"/>
</clipPath>
</defs>
</svg>
