<svg width="25" height="24" viewBox="0 0 25 24" fill="none" xmlns="http://www.w3.org/2000/svg">
<path fill-rule="evenodd" clip-rule="evenodd" d="M12.5004 2C12.9146 2.00004 13.2503 2.33585 13.2503 2.75007L13.25 6.25007C13.25 6.66428 12.9141 7.00004 12.4999 7C12.0857 6.99996 11.75 6.66415 11.75 6.24993L11.7503 2.74993C11.7503 2.33572 12.0862 1.99996 12.5004 2ZM5.42919 4.92867C5.72211 4.6358 6.19699 4.63584 6.48985 4.92876L8.96451 7.40385C9.25738 7.69677 9.25734 8.17164 8.96442 8.46451C8.6715 8.75738 8.19663 8.75734 7.90376 8.46442L5.4291 5.98933C5.13623 5.69641 5.13628 5.22154 5.42919 4.92867ZM19.5716 4.92943C19.8645 5.22232 19.8645 5.69719 19.5716 5.99009L17.0967 8.46496C16.8038 8.75785 16.3289 8.75785 16.036 8.46496C15.7431 8.17207 15.7431 7.69719 16.036 7.4043L18.5109 4.92943C18.8038 4.63653 19.2787 4.63653 19.5716 4.92943ZM2.5 12.0007C2.5 11.5865 2.83579 11.2507 3.25 11.2507H6.75C7.16421 11.2507 7.5 11.5865 7.5 12.0007C7.5 12.4149 7.16421 12.7507 6.75 12.7507H3.25C2.83579 12.7507 2.5 12.4149 2.5 12.0007ZM17.5 12.0007C17.5 11.5865 17.8358 11.2507 18.25 11.2507H21.75C22.1642 11.2507 22.5 11.5865 22.5 12.0007C22.5 12.4149 22.1642 12.7507 21.75 12.7507H18.25C17.8358 12.7507 17.5 12.4149 17.5 12.0007ZM16.0357 15.5353C16.3286 15.2424 16.8035 15.2424 17.0964 15.5353L19.5713 18.0102C19.8642 18.3031 19.8642 18.778 19.5713 19.0709C19.2784 19.3637 18.8035 19.3637 18.5106 19.0709L16.0357 16.596C15.7429 16.3031 15.7429 15.8282 16.0357 15.5353ZM8.96496 15.536C9.25785 15.8289 9.25785 16.3038 8.96496 16.5967L6.49009 19.0716C6.19719 19.3645 5.72232 19.3645 5.42943 19.0716C5.13653 18.7787 5.13653 18.3038 5.42943 18.0109L7.9043 15.536C8.19719 15.2431 8.67207 15.2431 8.96496 15.536ZM12.5003 17C12.9145 17 13.2503 17.3358 13.2503 17.75V21.25C13.2503 21.6642 12.9145 22 12.5003 22C12.0861 22 11.7503 21.6642 11.7503 21.25V17.75C11.7503 17.3358 12.0861 17 12.5003 17Z" fill="#222222"/>
</svg>
